<?xml version="1.0" encoding="UTF-8" standalone="no"?>
<!-- Created with Inkscape (http://www.inkscape.org/) -->

<svg
   xmlns:dc="http://purl.org/dc/elements/1.1/"
   xmlns:cc="http://creativecommons.org/ns#"
   xmlns:rdf="http://www.w3.org/1999/02/22-rdf-syntax-ns#"
   xmlns:svg="http://www.w3.org/2000/svg"
   xmlns="http://www.w3.org/2000/svg"
   xmlns:sodipodi="http://sodipodi.sourceforge.net/DTD/sodipodi-0.dtd"
   xmlns:inkscape="http://www.inkscape.org/namespaces/inkscape"
   width="210mm"
   height="297mm"
   viewBox="0 0 210 297"
   version="1.1"
   id="svg843"
   inkscape:version="0.92.2 (5c3e80d, 2017-08-06)"
   sodipodi:docname="logo linux.svg">
  <defs
     id="defs837" />
  <sodipodi:namedview
     id="base"
     pagecolor="#ffffff"
     bordercolor="#666666"
     borderopacity="1.0"
     inkscape:pageopacity="0.0"
     inkscape:pageshadow="2"
     inkscape:zoom="1.000377"
     inkscape:cx="306.08243"
     inkscape:cy="801.19764"
     inkscape:document-units="mm"
     inkscape:current-layer="layer1"
     showgrid="false"
     inkscape:window-width="1366"
     inkscape:window-height="704"
     inkscape:window-x="0"
     inkscape:window-y="27"
     inkscape:window-maximized="1" />
  <metadata
     id="metadata840">
    <rdf:RDF>
      <cc:Work
         rdf:about="">
        <dc:format>image/svg+xml</dc:format>
        <dc:type
           rdf:resource="http://purl.org/dc/dcmitype/StillImage" />
        <dc:title />
      </cc:Work>
    </rdf:RDF>
  </metadata>
  <g
     inkscape:label="Layer 1"
     inkscape:groupmode="layer"
     id="layer1">
    <g
       id="g2009">
      <path
         sodipodi:nodetypes="ccascacaccccccacaccccc"
         inkscape:connector-curvature="0"
         id="path1399"
         d="m 70.215802,32.919545 c -7.371262,9.43243 -8.624394,35.409499 -8.624394,35.409499 0,0 -10.375144,4.549955 -14.20417,8.646624 -5.088511,5.444186 -9.39574,13.794641 -10.551203,19.993723 -1.195432,6.413509 17.71553,-8.319846 17.71553,-8.319846 0,0 0.05111,9.916056 1.389797,14.603475 1.112501,3.89541 5.398709,10.8116 5.398709,10.8116 0,0 -7.750506,3.3661 -9.649624,6.92987 -1.727708,3.24211 -0.507262,11.12102 -0.507262,11.12102 l 36.514798,0.89463 -3.928389,-12.42836 15.138639,-1.05615 c 18.898947,-0.95411 -0.179738,12.58989 1.056442,13.78272 l 34.650385,0.17468 c 0,0 1.57548,-6.08617 0.52999,-8.8227 -1.55528,-4.07092 -9.22064,-8.94623 -9.22064,-8.94623 0,0 4.8155,-7.78893 5.91993,-12.20039 1.13588,-4.537064 0.57211,-14.056875 0.57211,-14.056875 4.5738,0.543508 21.78782,6.74731 22.5007,4.573266 C 153.46632,82.996962 137.01792,75.420631 128.05381,71.898763 124.46048,52.273105 125.29,35.631163 108.07968,25.370481 95.68727,18.274793 78.176646,23.601267 70.215802,32.919545 Z"
         style="fill:#000000;stroke:#000000;stroke-width:1.15494645px;stroke-linecap:butt;stroke-linejoin:miter;stroke-opacity:1" />
      <path
         sodipodi:nodetypes="cacaccccaaacc"
         inkscape:connector-curvature="0"
         id="path1445"
         d="m 91.691787,60.39657 c 0,0 -14.951448,6.783262 -20.420924,12.794114 -3.60945,3.966719 -7.393079,14.491888 -7.393079,14.491888 0,0 -1.869214,7.297533 -1.907784,11.035352 -0.05034,4.880376 2.193054,14.461396 2.193054,14.461396 l 23.534929,17.46913 12.1983,-0.49924 22.853127,-14.43511 c 0,0 2.95674,-18.130913 1.32074,-26.987773 -0.91866,-4.973384 -3.24049,-9.767933 -6.10649,-13.889461 -2.09782,-3.016822 -4.8181,-5.652752 -7.87183,-7.581497 -5.5733,-3.520122 -18.400043,-6.858777 -18.400043,-6.858777 z"
         style="fill:#e6e6e6;stroke:#000000;stroke-width:1.15494645px;stroke-linecap:butt;stroke-linejoin:miter;stroke-opacity:1" />
      <path
         sodipodi:nodetypes="ccacac"
         inkscape:connector-curvature="0"
         id="path1447"
         d="M 87.697983,133.01014 51.183185,132.1155 c 0,0 -0.553916,-9.01447 1.734039,-12.46565 2.437275,-3.67642 11.24583,-6.47053 11.24583,-6.47053 0,0 17.532103,-1.05204 22.572382,5.02298 3.100884,3.73748 0.962547,14.80784 0.962547,14.80784 z"
         style="fill:#ffff00;stroke:#000000;stroke-width:1.15494645px;stroke-linecap:butt;stroke-linejoin:miter;stroke-opacity:1" />
      <path
         sodipodi:nodetypes="cacacc"
         inkscape:connector-curvature="0"
         id="path1449"
         d="m 134.61506,133.48303 c 0,0 1.27553,-9.63143 -1.23992,-13.17552 -2.95038,-4.15689 -13.72671,-5.93534 -13.72671,-5.93534 0,0 -13.7788,-0.89651 -17.91601,3.77842 -3.306611,3.73635 -1.767745,15.15776 -1.767745,15.15776 z"
         style="fill:#ffff00;stroke:#000000;stroke-width:1.15494645px;stroke-linecap:butt;stroke-linejoin:miter;stroke-opacity:1" />
      <path
         sodipodi:nodetypes="ccacac"
         inkscape:connector-curvature="0"
         id="path1439-6"
         d="m 82.598162,59.803331 19.062318,0.210878 c 0,0 -1.59859,8.998467 -3.836823,12.813805 -1.620961,2.763117 -6.652497,6.796616 -6.652497,6.796616 0,0 -5.461098,-3.445598 -6.900015,-6.248521 -2.063444,-4.019458 -1.672983,-13.572778 -1.672983,-13.572778 z"
         style="fill:#ffff00;stroke:#000000;stroke-width:1.15494645px;stroke-linecap:butt;stroke-linejoin:miter;stroke-opacity:1" />
      <path
         sodipodi:nodetypes="ccccc"
         inkscape:connector-curvature="0"
         id="path1401-7"
         d="m 85.599068,42.947186 c -4.617435,-2.786517 -10.493459,-2.015484 -13.666872,2.13782 -3.332637,6.194866 -4.603487,15.536197 -0.02263,20.768429 6.039308,4.3152 11.422106,4.268584 16.181273,-1.531938 3.287983,-6.872617 3.558797,-16.634431 -2.491867,-21.374311 z"
         style="fill:#ffffff;stroke:#000000;stroke-width:1.15494645px;stroke-linecap:butt;stroke-linejoin:miter;stroke-opacity:1" />
      <path
         sodipodi:nodetypes="aaaaa"
         inkscape:connector-curvature="0"
         id="path1401-3-5"
         d="m 110.06742,47.103838 c -3.98127,-3.162705 -11.77473,-3.141158 -14.978029,0.872633 -3.081757,3.861494 -1.953984,11.815519 1.79283,14.969651 4.218129,3.550894 12.979599,3.034263 16.181279,-1.531938 2.76147,-3.938388 0.72307,-11.355868 -2.99608,-14.310346 z"
         style="fill:#ffffff;stroke:#000000;stroke-width:1.15494645px;stroke-linecap:butt;stroke-linejoin:miter;stroke-opacity:1" />
      <ellipse
         ry="6.0623584"
         rx="3.5804884"
         cy="54.777828"
         cx="86.0298"
         id="path1441-3"
         style="opacity:1;fill:#000000;fill-opacity:1;stroke:none;stroke-width:8.60486031;stroke-linecap:round;stroke-linejoin:round;stroke-miterlimit:4;stroke-dasharray:none;stroke-opacity:1" />
      <ellipse
         ry="3.6901314"
         rx="2.0171766"
         cy="56.199123"
         cx="96.720161"
         id="path1443-5"
         style="opacity:1;fill:#000000;fill-opacity:1;stroke:none;stroke-width:5.70060301;stroke-linecap:round;stroke-linejoin:round;stroke-miterlimit:4;stroke-dasharray:none;stroke-opacity:1" />
    </g>
  </g>
</svg>
