<?xml version="1.0" encoding="UTF-8" standalone="no"?>
<!-- Created with Inkscape (http://www.inkscape.org/) -->

<svg
   xmlns:dc="http://purl.org/dc/elements/1.1/"
   xmlns:cc="http://creativecommons.org/ns#"
   xmlns:rdf="http://www.w3.org/1999/02/22-rdf-syntax-ns#"
   xmlns:svg="http://www.w3.org/2000/svg"
   xmlns="http://www.w3.org/2000/svg"
   xmlns:xlink="http://www.w3.org/1999/xlink"
   xmlns:sodipodi="http://sodipodi.sourceforge.net/DTD/sodipodi-0.dtd"
   xmlns:inkscape="http://www.inkscape.org/namespaces/inkscape"
   width="210mm"
   height="297mm"
   viewBox="0 0 210 297"
   version="1.1"
   id="svg8"
   inkscape:version="0.92.3 (unknown)"
   sodipodi:docname="ubos-logo.svg.2018_01_09_10_34_05.0-a.svg"
   inkscape:export-filename="/home/melati/remaster/ubos-master/icon/icon.png"
   inkscape:export-xdpi="96"
   inkscape:export-ydpi="96">
  <defs
     id="defs2">
    <linearGradient
       inkscape:collect="always"
       id="linearGradient2462">
      <stop
         style="stop-color:#000000;stop-opacity:1;"
         offset="0"
         id="stop2458" />
      <stop
         style="stop-color:#000000;stop-opacity:0;"
         offset="1"
         id="stop2460" />
    </linearGradient>
    <radialGradient
       inkscape:collect="always"
       xlink:href="#linearGradient2462"
       id="radialGradient2464"
       cx="95.438972"
       cy="154.91885"
       fx="95.438972"
       fy="154.91885"
       r="42.276634"
       gradientTransform="matrix(1.540465,0,0,1.5335786,-48.194398,-90.667213)"
       gradientUnits="userSpaceOnUse" />
  </defs>
  <sodipodi:namedview
     id="base"
     pagecolor="#ffffff"
     bordercolor="#666666"
     borderopacity="1.0"
     inkscape:pageopacity="0.0"
     inkscape:pageshadow="2"
     inkscape:zoom="0.7"
     inkscape:cx="328.30819"
     inkscape:cy="522.53768"
     inkscape:document-units="mm"
     inkscape:current-layer="layer1"
     showgrid="false"
     inkscape:measure-start="0,0"
     inkscape:measure-end="0,0"
     inkscape:window-width="1366"
     inkscape:window-height="719"
     inkscape:window-x="0"
     inkscape:window-y="25"
     inkscape:window-maximized="1" />
  <metadata
     id="metadata5">
    <rdf:RDF>
      <cc:Work
         rdf:about="">
        <dc:format>image/svg+xml</dc:format>
        <dc:type
           rdf:resource="http://purl.org/dc/dcmitype/StillImage" />
        <dc:title></dc:title>
      </cc:Work>
    </rdf:RDF>
  </metadata>
  <g
     inkscape:label="Layer 1"
     inkscape:groupmode="layer"
     id="layer1">
    <path
       style="opacity:1;fill:#008080;fill-opacity:1;stroke:url(#radialGradient2464);stroke-width:0.34629586;stroke-opacity:0"
       d="M 98.825933,82.251678 A 64.95253,64.66139 0 0 0 33.87331,146.91285 64.95253,64.66139 0 0 0 98.825933,211.57453 64.95253,64.66139 0 0 0 163.77856,146.91285 64.95253,64.66139 0 0 0 98.825933,82.251678 Z M 81.102985,101.58021 c 0,0 9.146786,2.22807 14.431677,6.82801 5.045678,4.39111 9.987508,16.82326 9.987508,16.82326 0,0 11.09167,-2.38149 17.16226,-0.68523 5.21871,1.45821 15.58716,4.61161 15.58716,4.61161 0,0 -7.76666,15.57508 -15.04198,19.25877 -7.01862,3.55374 -23.579437,0.70693 -23.579437,0.70693 0,0 -6.511517,10.71167 -11.957928,12.89017 -7.780684,3.112 -25.071337,-1.55494 -25.071337,-1.55494 0,0 2.760377,-10.35207 5.474602,-14.89883 2.464999,-4.12933 9.562725,-10.81691 9.562725,-10.81691 0,0 -2.365566,-10.29274 -1.661915,-17.50023 0.641049,-6.56639 5.106665,-15.66261 5.106665,-15.66261 z m 21.317045,50.15508 c 0.83418,-0.0136 1.78286,0.48495 2.76882,1.96681 0,0 3.54318,8.73815 3.00292,16.47858 -0.80803,11.5772 -12.722738,32.40784 -12.722738,32.40784 l 0.763262,-11.30422 c 7.894526,-20.63486 8.406546,-24.26264 3.166732,-37.03702 -0.09539,0.0273 1.185814,-2.48208 3.021004,-2.51199 z m 24.167,2.50528 c 0,0 -0.48403,6.04826 -1.96215,8.58914 -0.51826,0.89091 -2.28152,2.09289 -2.28152,2.09289 0,0 -1.49087,0.92508 -2.33526,1.07487 -1.27997,0.2271 -3.88813,-0.31161 -3.88813,-0.31161 l -5.57434,4.5806 0.12351,-1.45159 5.11545,-4.33307 c 0,0 0.38856,-1.49714 0.81029,-2.12959 0.48655,-0.72968 1.91151,-1.81177 1.91151,-1.81177 0,0 2.86272,-0.98737 4.06435,-1.8681 1.60949,-1.17966 4.01629,-4.43177 4.01629,-4.43177 z"
       id="path3739"
       inkscape:connector-curvature="0" />
  </g>
</svg>
