<?xml version="1.0" encoding="UTF-8" standalone="no"?>
<!-- Created with Inkscape (http://www.inkscape.org/) -->

<svg
   xmlns:osb="http://www.openswatchbook.org/uri/2009/osb"
   xmlns:dc="http://purl.org/dc/elements/1.1/"
   xmlns:cc="http://creativecommons.org/ns#"
   xmlns:rdf="http://www.w3.org/1999/02/22-rdf-syntax-ns#"
   xmlns:svg="http://www.w3.org/2000/svg"
   xmlns="http://www.w3.org/2000/svg"
   xmlns:sodipodi="http://sodipodi.sourceforge.net/DTD/sodipodi-0.dtd"
   xmlns:inkscape="http://www.inkscape.org/namespaces/inkscape"
   width="297mm"
   height="210mm"
   viewBox="0 0 297 210"
   version="1.1"
   id="svg1390"
   inkscape:export-filename="/home/melati/bg2.png"
   inkscape:export-xdpi="96"
   inkscape:export-ydpi="96"
   inkscape:version="0.92.2 (5c3e80d, 2017-08-06)"
   sodipodi:docname="bg-2.svg">
  <defs
     id="defs1384">
    <linearGradient
       id="linearGradient4049"
       osb:paint="solid">
      <stop
         style="stop-color:#2d2d2d;stop-opacity:1;"
         offset="0"
         id="stop4047" />
    </linearGradient>
  </defs>
  <sodipodi:namedview
     id="base"
     pagecolor="#ffffff"
     bordercolor="#666666"
     borderopacity="1.0"
     inkscape:pageopacity="0.0"
     inkscape:pageshadow="2"
     inkscape:zoom="0.64033441"
     inkscape:cx="548.11341"
     inkscape:cy="394.42416"
     inkscape:document-units="mm"
     inkscape:current-layer="layer1"
     showgrid="false"
     inkscape:window-width="1366"
     inkscape:window-height="704"
     inkscape:window-x="0"
     inkscape:window-y="27"
     inkscape:window-maximized="1"
     showguides="true">
    <inkscape:grid
       type="xygrid"
       id="grid1040" />
  </sodipodi:namedview>
  <metadata
     id="metadata1387">
    <rdf:RDF>
      <cc:Work
         rdf:about="">
        <dc:format>image/svg+xml</dc:format>
        <dc:type
           rdf:resource="http://purl.org/dc/dcmitype/StillImage" />
        <dc:title></dc:title>
      </cc:Work>
    </rdf:RDF>
  </metadata>
  <g
     inkscape:label="Layer 1"
     inkscape:groupmode="layer"
     id="layer1"
     transform="translate(0,-87)">
    <rect
       style="opacity:1;fill:#004455;fill-opacity:1;stroke:none;stroke-width:1.60399997;stroke-linecap:round;stroke-linejoin:round;stroke-miterlimit:4;stroke-dasharray:none;stroke-opacity:1"
       id="rect860"
       width="296.33334"
       height="206.375"
       x="1.0583333"
       y="89.566666" />
    <text
       xml:space="preserve"
       style="font-style:normal;font-variant:normal;font-weight:normal;font-stretch:normal;font-size:9.27993107px;line-height:1.25;font-family:Carlito;-inkscape-font-specification:'Carlito, Normal';font-variant-ligatures:normal;font-variant-caps:normal;font-variant-numeric:normal;font-feature-settings:normal;text-align:start;letter-spacing:0px;word-spacing:0px;writing-mode:lr-tb;text-anchor:start;fill:#ffffff;fill-opacity:1;stroke:none;stroke-width:0.23199828"
       x="204.08946"
       y="217.12035"
       id="text836-1-3"><tspan
         sodipodi:role="line"
         id="tspan834-9-5"
         x="204.08946"
         y="217.12035"
         style="font-style:normal;font-variant:normal;font-weight:normal;font-stretch:normal;font-size:9.27993107px;font-family:Carlito;-inkscape-font-specification:'Carlito, Normal';font-variant-ligatures:normal;font-variant-caps:normal;font-variant-numeric:normal;font-feature-settings:normal;text-align:start;writing-mode:lr-tb;text-anchor:start;fill:#ffffff;fill-opacity:1;stroke-width:0.23199828">UB-OS</tspan></text>
    <text
       xml:space="preserve"
       style="font-style:normal;font-variant:normal;font-weight:normal;font-stretch:normal;font-size:9.27993107px;line-height:1.25;font-family:Carlito;-inkscape-font-specification:'Carlito, Normal';font-variant-ligatures:normal;font-variant-caps:normal;font-variant-numeric:normal;font-feature-settings:normal;text-align:start;letter-spacing:0px;word-spacing:0px;writing-mode:lr-tb;text-anchor:start;fill:#ffffff;fill-opacity:1;stroke:none;stroke-width:0.23199828"
       x="131.13817"
       y="217.56445"
       id="text836-1-5-9"><tspan
         sodipodi:role="line"
         id="tspan834-9-4-2"
         x="131.13817"
         y="217.56445"
         style="font-style:normal;font-variant:normal;font-weight:normal;font-stretch:normal;font-size:9.27993107px;font-family:Carlito;-inkscape-font-specification:'Carlito, Normal';font-variant-ligatures:normal;font-variant-caps:normal;font-variant-numeric:normal;font-feature-settings:normal;text-align:start;writing-mode:lr-tb;text-anchor:start;fill:#ffffff;fill-opacity:1;stroke-width:0.23199828">UNBAJA</tspan></text>
    <text
       xml:space="preserve"
       style="font-style:normal;font-weight:normal;font-size:9.27993107px;line-height:1.25;font-family:sans-serif;letter-spacing:0px;word-spacing:0px;fill:#f6f6f6;fill-opacity:1;stroke:none;stroke-width:0.23199828"
       x="106.09306"
       y="197.01122"
       id="text2055-7"><tspan
         sodipodi:role="line"
         id="tspan2053-3"
         x="106.09306"
         y="197.01122"
         style="fill:#f6f6f6;fill-opacity:1;stroke-width:0.23199828">+</tspan></text>
    <text
       xml:space="preserve"
       style="font-style:normal;font-variant:normal;font-weight:normal;font-stretch:normal;font-size:9.27993107px;line-height:1.25;font-family:Carlito;-inkscape-font-specification:'Carlito, Normal';font-variant-ligatures:normal;font-variant-caps:normal;font-variant-numeric:normal;font-feature-settings:normal;text-align:start;letter-spacing:0px;word-spacing:0px;writing-mode:lr-tb;text-anchor:start;fill:#ffffff;fill-opacity:1;stroke:none;stroke-width:0.23199828"
       x="68.824471"
       y="217.56445"
       id="text836-1-5-9-6"><tspan
         sodipodi:role="line"
         id="tspan834-9-4-2-1"
         x="68.824471"
         y="217.56445"
         style="font-style:normal;font-variant:normal;font-weight:normal;font-stretch:normal;font-size:9.27993107px;font-family:Carlito;-inkscape-font-specification:'Carlito, Normal';font-variant-ligatures:normal;font-variant-caps:normal;font-variant-numeric:normal;font-feature-settings:normal;text-align:start;writing-mode:lr-tb;text-anchor:start;fill:#ffffff;fill-opacity:1;stroke-width:0.23199828">LINUX</tspan></text>
    <text
       xml:space="preserve"
       style="font-style:normal;font-weight:normal;font-size:9.27993107px;line-height:1.25;font-family:sans-serif;letter-spacing:0px;word-spacing:0px;fill:#f6f6f6;fill-opacity:1;stroke:none;stroke-width:0.23199828"
       x="186.28069"
       y="198.0217"
       id="text2055-7-2"><tspan
         sodipodi:role="line"
         id="tspan2053-3-9"
         x="186.28069"
         y="198.0217"
         style="fill:#f6f6f6;fill-opacity:1;stroke-width:0.23199828">=</tspan></text>
    <g
       id="g3563"
       transform="matrix(0.87684395,0,0,0.87684395,22.720746,31.775805)">
      <path
         style="fill:#000000;stroke:#000000;stroke-width:0.27000001;stroke-linecap:butt;stroke-linejoin:miter;stroke-miterlimit:4;stroke-dasharray:none;stroke-opacity:1"
         d="m 61.448988,170.1398 c -1.988414,2.54442 -2.326448,9.55179 -2.326448,9.55179 0,0 -2.798717,1.22736 -3.831604,2.33244 -1.372637,1.46858 -2.534521,3.72114 -2.846209,5.39335 -0.32247,1.73006 4.7788,-2.24429 4.7788,-2.24429 0,0 0.01379,2.67487 0.374901,3.93931 0.3001,1.0508 1.456313,2.91646 1.456313,2.91646 0,0 -1.228726,1.15404 -1.653443,1.86934 -0.542977,0.91447 -1.086398,2.99992 -1.086398,2.99992 l 9.849942,0.24133 -1.059691,-3.35258 4.083679,-0.2849 c 5.098029,-0.25737 -0.04848,3.39615 0.284977,3.71792 l 9.347012,0.0471 c 0,0 -0.108305,-1.64506 -0.441381,-2.37994 -0.422899,-0.93306 -1.902939,-2.41326 -1.902939,-2.41326 0,0 1.298991,-2.10108 1.596913,-3.29108 0.306406,-1.22389 0.154328,-3.79188 0.154328,-3.79188 1.233792,0.14662 5.877309,1.82011 6.06961,1.23365 -0.391365,-2.97621 -4.828354,-5.01994 -7.246441,-5.96997 -0.969308,-5.29406 -0.745544,-9.78326 -5.388063,-12.5511 -3.342878,-1.91408 -8.066404,-0.47725 -10.213858,2.03637 z"
         id="path3545"
         inkscape:connector-curvature="0"
         sodipodi:nodetypes="ccascacaccccccacaccccc" />
      <path
         style="fill:#e6e6e6;stroke:#000000;stroke-width:0.27000001;stroke-linecap:butt;stroke-linejoin:miter;stroke-miterlimit:4;stroke-dasharray:none;stroke-opacity:1"
         d="m 67.242179,177.55179 c 0,0 -4.033184,1.8298 -5.508587,3.45124 -0.973656,1.07003 -1.994298,3.90921 -1.994298,3.90921 0,0 -0.504224,1.96853 -0.514628,2.97681 -0.01358,1.31649 0.59158,3.90099 0.59158,3.90099 l 6.348596,4.71234 3.290516,-0.13467 6.164678,-3.8939 c 0,0 0.797587,-4.89086 0.356272,-7.28001 -0.24781,-1.34158 -0.874129,-2.63492 -1.647238,-3.74671 -0.565891,-0.8138 -1.299692,-1.52484 -2.123442,-2.04513 -1.503409,-0.94956 -4.963449,-1.85017 -4.963449,-1.85017 z"
         id="path3547"
         inkscape:connector-curvature="0"
         sodipodi:nodetypes="cacaccccaaacc" />
      <path
         style="fill:#ffff00;stroke:#000000;stroke-width:0.27000001;stroke-linecap:butt;stroke-linejoin:miter;stroke-miterlimit:4;stroke-dasharray:none;stroke-opacity:1"
         d="M 66.164842,197.13945 56.3149,196.89812 c 0,0 -0.14942,-2.43167 0.467761,-3.36264 0.65746,-0.99172 3.033585,-1.74544 3.033585,-1.74544 0,0 4.729321,-0.28379 6.088947,1.35496 0.836469,1.0082 0.259649,3.99445 0.259649,3.99445 z"
         id="path3549"
         inkscape:connector-curvature="0"
         sodipodi:nodetypes="ccacac" />
      <path
         style="fill:#ffff00;stroke:#000000;stroke-width:0.27000001;stroke-linecap:butt;stroke-linejoin:miter;stroke-miterlimit:4;stroke-dasharray:none;stroke-opacity:1"
         d="m 78.820819,197.26701 c 0,0 0.344077,-2.5981 -0.334471,-3.55412 -0.795871,-1.12133 -3.702808,-1.60107 -3.702808,-1.60107 0,0 -3.716859,-0.24184 -4.83288,1.01923 -0.891965,1.00789 -0.476853,4.08884 -0.476853,4.08884 z"
         id="path3551"
         inkscape:connector-curvature="0"
         sodipodi:nodetypes="cacacc" />
      <path
         style="fill:#ffff00;stroke:#000000;stroke-width:0.27000001;stroke-linecap:butt;stroke-linejoin:miter;stroke-miterlimit:4;stroke-dasharray:none;stroke-opacity:1"
         d="m 64.789155,177.39176 5.142099,0.0569 c 0,0 -0.431223,2.42735 -1.034991,3.45655 -0.437258,0.74535 -1.794525,1.8334 -1.794525,1.8334 0,0 -1.473142,-0.92946 -1.861293,-1.68555 -0.556618,-1.08426 -0.45129,-3.66129 -0.45129,-3.66129 z"
         id="path3553"
         inkscape:connector-curvature="0"
         sodipodi:nodetypes="ccacac" />
      <path
         style="fill:#ffffff;stroke:#000000;stroke-width:0.27000001;stroke-linecap:butt;stroke-linejoin:miter;stroke-miterlimit:4;stroke-dasharray:none;stroke-opacity:1"
         d="m 65.598655,172.84478 c -1.245562,-0.75167 -2.830632,-0.54368 -3.686667,0.57668 -0.898985,1.67108 -1.2418,4.19092 -0.0061,5.60233 1.629116,1.16403 3.081136,1.15146 4.364931,-0.41324 0.886941,-1.85391 0.959993,-4.48718 -0.672186,-5.76577 z"
         id="path3555"
         inkscape:connector-curvature="0"
         sodipodi:nodetypes="ccccc" />
      <path
         style="fill:#ffffff;stroke:#000000;stroke-width:0.27000001;stroke-linecap:butt;stroke-linejoin:miter;stroke-miterlimit:4;stroke-dasharray:none;stroke-opacity:1"
         d="m 72.199043,173.96605 c -1.073956,-0.85315 -3.176257,-0.84734 -4.040354,0.23539 -0.83131,1.04165 -0.527091,3.18726 0.48362,4.0381 1.137849,0.95786 3.501273,0.81849 4.364933,-0.41325 0.744912,-1.06239 0.19505,-3.06327 -0.808199,-3.86024 z"
         id="path3557"
         inkscape:connector-curvature="0"
         sodipodi:nodetypes="aaaaa" />
      <ellipse
         style="opacity:1;fill:#000000;fill-opacity:1;stroke:none;stroke-width:0.27000001;stroke-linecap:round;stroke-linejoin:round;stroke-miterlimit:4;stroke-dasharray:none;stroke-opacity:1"
         id="ellipse3559"
         cx="65.714844"
         cy="176.03612"
         rx="0.96584409"
         ry="1.6353337" />
      <ellipse
         style="opacity:1;fill:#000000;fill-opacity:1;stroke:none;stroke-width:0.27000001;stroke-linecap:round;stroke-linejoin:round;stroke-miterlimit:4;stroke-dasharray:none;stroke-opacity:1"
         id="ellipse3561"
         cx="68.598595"
         cy="176.41953"
         rx="0.54413754"
         ry="0.99542052" />
    </g>
    <g
       style="stroke:#feffff;stroke-width:0;stroke-miterlimit:4;stroke-dasharray:none;stroke-opacity:0"
       transform="matrix(0.48509903,0,0,0.48509903,131.95646,111.55668)"
       id="g3620">
      <path
         style="fill:#fafafa;fill-opacity:1;stroke:#feffff;stroke-width:0;stroke-linecap:butt;stroke-linejoin:miter;stroke-miterlimit:4;stroke-dasharray:none;stroke-opacity:0"
         d="m 181.60057,175.11035 3.27197,-2.77167 c 0,0 0.24868,-0.95761 0.51844,-1.36214 0.31122,-0.46674 1.22261,-1.15892 1.22261,-1.15892 0,0 1.83114,-0.63134 2.59975,-1.19469 1.0295,-0.75455 2.569,-2.83495 2.569,-2.83495 0,0 -0.3097,3.8688 -1.25515,5.49404 -0.3315,0.56987 -1.45934,1.33876 -1.45934,1.33876 0,0 -0.95381,0.5917 -1.49391,0.68751 -0.81872,0.14526 -2.48682,-0.1992 -2.48682,-0.1992 l -3.56569,2.9299 z"
         id="path3614"
         inkscape:connector-curvature="0"
         sodipodi:nodetypes="ccacacacaccc" />
      <path
         style="fill:#ffffff;fill-opacity:1;stroke:#feffff;stroke-width:0;stroke-linecap:butt;stroke-linejoin:miter;stroke-miterlimit:4;stroke-dasharray:none;stroke-opacity:0"
         d="m 172.36611,189.48271 -0.48817,7.23061 c 0,0 7.62122,-13.32426 8.13807,-20.72949 0.34557,-4.95108 -1.92086,-10.54002 -1.92086,-10.54002 -2.01812,-3.03312 -3.79201,0.37385 -3.70327,0.34849 3.35159,8.17099 3.02388,10.49155 -2.02577,23.69041 z"
         id="path3616"
         inkscape:connector-curvature="0"
         sodipodi:nodetypes="ccsccc" />
      <path
         style="fill:#ffff00;fill-opacity:1;stroke:#feffff;stroke-width:0;stroke-linecap:butt;stroke-linejoin:miter;stroke-miterlimit:4;stroke-dasharray:none;stroke-opacity:0"
         d="m 162.6888,132.10448 c 0,0 -2.85632,5.8183 -3.26636,10.01841 -0.45008,4.61019 1.06302,11.19377 1.06302,11.19377 0,0 -4.54004,4.27784 -6.11675,6.91912 -1.73612,2.90828 -3.50165,9.52984 -3.50165,9.52984 0,0 11.05966,2.98516 16.03649,0.99461 3.48373,-1.39345 7.64895,-8.24529 7.64895,-8.24529 0,0 10.59266,1.82088 15.08205,-0.45223 4.65357,-2.35623 9.62148,-12.31859 9.62148,-12.31859 0,0 -6.63191,-2.01691 -9.97,-2.94963 -3.88298,-1.08499 -10.97779,0.43812 -10.97779,0.43812 0,0 -3.16085,-7.95203 -6.38826,-10.76075 -3.38043,-2.9423 -9.23119,-4.36741 -9.23119,-4.36741 z"
         id="path3618"
         inkscape:connector-curvature="0"
         sodipodi:nodetypes="cscacacacscsc" />
    </g>
    <g
       transform="matrix(0.87684395,0,0,0.87684395,21.880319,32.413737)"
       id="g3652">
      <path
         inkscape:connector-curvature="0"
         id="path3622"
         d="m 118.13177,178.76823 v 19.125 l 18.50056,0.0959 v -1.06066 l 2.45256,-0.34776 -14.06249,-6.65625 v -4.96875 z"
         style="fill:#0000ff;stroke:none;stroke-width:0.30000001;stroke-linecap:butt;stroke-linejoin:miter;stroke-miterlimit:4;stroke-dasharray:none;stroke-opacity:1" />
      <path
         inkscape:connector-curvature="0"
         id="path3624"
         d="m 125.81927,171.69011 -0.0469,17.57812 13.3125,6.65625 0.14062,-2.71875 -6.65625,-7.35937 0.28125,-5.76563 z"
         style="fill:#ff6600;stroke:none;stroke-width:0.30000001;stroke-linecap:butt;stroke-linejoin:miter;stroke-miterlimit:4;stroke-dasharray:none;stroke-opacity:1" />
      <path
         sodipodi:nodetypes="ccccccc"
         inkscape:connector-curvature="0"
         id="path3626"
         d="m 133.38406,166.23564 0.66291,19.15817 5.36959,6.49654 0.65271,-5.85649 v 0 l 2.19914,-6.85252 z"
         style="fill:#00ff00;fill-opacity:1;stroke:none;stroke-width:0.30000001;stroke-linecap:butt;stroke-linejoin:miter;stroke-miterlimit:4;stroke-dasharray:none;stroke-opacity:1" />
      <path
         inkscape:connector-curvature="0"
         id="path3628"
         d="m 170.32945,178.75885 v 19.125 l -18.50057,0.0959 v -1.06066 l -2.45256,-0.34776 14.0625,-6.65625 v -4.96875 z"
         style="fill:#0000ff;stroke:none;stroke-width:0.30000001;stroke-linecap:butt;stroke-linejoin:miter;stroke-miterlimit:4;stroke-dasharray:none;stroke-opacity:1" />
      <path
         inkscape:connector-curvature="0"
         id="path3630"
         d="m 162.64195,171.68073 0.0469,17.57812 -13.31251,6.65625 -0.14062,-2.71875 6.65625,-7.35937 -0.28125,-5.76563 z"
         style="fill:#ff6600;fill-opacity:1;stroke:none;stroke-width:0.30000001;stroke-linecap:butt;stroke-linejoin:miter;stroke-miterlimit:4;stroke-dasharray:none;stroke-opacity:1" />
      <path
         sodipodi:nodetypes="ccccccc"
         inkscape:connector-curvature="0"
         id="path3632"
         d="m 155.07716,166.22626 -0.66292,19.15817 -5.36959,6.49654 -0.6527,-5.85649 v 0 l -2.19914,-6.85252 z"
         style="fill:#00ff00;fill-opacity:1;stroke:none;stroke-width:0.30000001;stroke-linecap:butt;stroke-linejoin:miter;stroke-miterlimit:4;stroke-dasharray:none;stroke-opacity:1" />
      <path
         inkscape:connector-curvature="0"
         id="path3634"
         d="m 136.52615,196.47285 h 15.08125 v 1.5875 h -15.08125 z"
         style="fill:#ffffff;fill-opacity:1;stroke:#000000;stroke-width:0.60000002;stroke-linecap:butt;stroke-linejoin:miter;stroke-miterlimit:4;stroke-dasharray:none;stroke-opacity:1"
         sodipodi:nodetypes="ccccc" />
      <path
         inkscape:connector-curvature="0"
         id="path3636"
         d="m 138.93229,196.42187 0.98438,-10.54687 h 8.25 l 1.32407,10.59785 z"
         style="fill:#ffffff;fill-opacity:1;stroke:#170000;stroke-width:0.60000002;stroke-linecap:butt;stroke-linejoin:miter;stroke-miterlimit:4;stroke-dasharray:none;stroke-opacity:1"
         sodipodi:nodetypes="ccccc" />
      <path
         inkscape:connector-curvature="0"
         id="path3638"
         d="m 139.91667,185.875 -1.14844,0.0234 -0.0234,-0.77344 -1.05469,-0.0469 0.0234,-0.84375 h -1.00781 V 183.414 l 14.57812,0.0234 v 0.9375 h -0.72656 v 0.67968 h -1.125 v 0.72657 0.16406 l -1.26563,-0.0703 z"
         style="fill:#ffffff;fill-opacity:1;stroke:#170000;stroke-width:0.60000002;stroke-linecap:butt;stroke-linejoin:miter;stroke-miterlimit:4;stroke-dasharray:none;stroke-opacity:1" />
      <path
         inkscape:connector-curvature="0"
         id="path3640"
         d="m 138.13542,183.17968 v -1.96875 l 11.74218,0.0234 v 2.10937 z"
         style="fill:#ffffff;fill-opacity:1;stroke:#170000;stroke-width:0.60000002;stroke-linecap:butt;stroke-linejoin:miter;stroke-miterlimit:4;stroke-dasharray:none;stroke-opacity:1" />
      <path
         sodipodi:nodetypes="ccccc"
         inkscape:connector-curvature="0"
         id="path3642"
         d="m 139.61198,181.11718 c 0,0 0.69842,-1.61238 1.35671,-2.14279 1.68566,-1.28603 4.42524,-1.15143 5.96526,-0.0626 0.67054,0.51584 1.49053,2.20535 1.49053,2.20535 z"
         style="fill:#ffffff;fill-opacity:1;stroke:#170000;stroke-width:0.60000002;stroke-linecap:butt;stroke-linejoin:miter;stroke-miterlimit:4;stroke-dasharray:none;stroke-opacity:1" />
      <path
         inkscape:connector-curvature="0"
         id="path3644"
         d="m 139.7526,176.71093 v 1.45313 h 8.57813 v -1.52344 z"
         style="fill:#ffffff;fill-opacity:1;stroke:#170000;stroke-width:0.60000002;stroke-linecap:butt;stroke-linejoin:miter;stroke-miterlimit:4;stroke-dasharray:none;stroke-opacity:1" />
      <path
         sodipodi:nodetypes="ccccc"
         inkscape:connector-curvature="0"
         id="path3646"
         d="m 140.97135,176.5 c 0,0 0.64074,-1.2678 1.07872,-1.73493 1.41328,-1.31366 2.72898,-1.16536 4.18824,0.0712 0.46273,0.46249 0.87367,1.75751 0.87367,1.75751 z"
         style="fill:#ffffff;fill-opacity:1;stroke:#170000;stroke-width:0.60000002;stroke-linecap:butt;stroke-linejoin:miter;stroke-miterlimit:4;stroke-dasharray:none;stroke-opacity:1" />
      <path
         sodipodi:nodetypes="ccccccccccc"
         inkscape:connector-curvature="0"
         id="path3648"
         d="m 141.88542,171.22656 0.32812,1.99218 1.28906,0.60938 1.14844,0.0703 1.17188,-0.67969 0.35156,-1.94531 -0.9375,0.21094 -0.82031,1.92188 h -0.63281 l -0.9375,-1.94532 z"
         style="fill:#ffffff;fill-opacity:1;stroke:#170000;stroke-width:0.60000002;stroke-linecap:butt;stroke-linejoin:miter;stroke-miterlimit:4;stroke-dasharray:none;stroke-opacity:1" />
      <path
         sodipodi:nodetypes="cccccc"
         inkscape:connector-curvature="0"
         id="path3650"
         d="m 144.09712,169.64909 -0.66483,1.71809 0.41851,1.25272 0.52377,-0.0201 0.48741,-1.44357 z"
         style="fill:#ffffff;fill-opacity:1;stroke:#170000;stroke-width:0.60000002;stroke-linecap:butt;stroke-linejoin:miter;stroke-miterlimit:4;stroke-dasharray:none;stroke-opacity:1" />
    </g>
  </g>
</svg>
