<?xml version="1.0" encoding="UTF-8" standalone="no"?>
<!-- Created with Inkscape (http://www.inkscape.org/) -->

<svg
   xmlns:osb="http://www.openswatchbook.org/uri/2009/osb"
   xmlns:dc="http://purl.org/dc/elements/1.1/"
   xmlns:cc="http://creativecommons.org/ns#"
   xmlns:rdf="http://www.w3.org/1999/02/22-rdf-syntax-ns#"
   xmlns:svg="http://www.w3.org/2000/svg"
   xmlns="http://www.w3.org/2000/svg"
   xmlns:sodipodi="http://sodipodi.sourceforge.net/DTD/sodipodi-0.dtd"
   xmlns:inkscape="http://www.inkscape.org/namespaces/inkscape"
   width="297mm"
   height="210mm"
   viewBox="0 0 297 210"
   version="1.1"
   id="svg1390"
   inkscape:export-filename="/media/melati/11859924-8f28-466f-ab6f-fc9d36942bf8/home/melati/remaster/file-remaster-ubos/install-wallpaper/backgourd-booting.png"
   inkscape:export-xdpi="96"
   inkscape:export-ydpi="96"
   inkscape:version="0.92.3 (unknown)"
   sodipodi:docname="bg-dodol-modif.svg">
  <defs
     id="defs1384">
    <linearGradient
       id="linearGradient4049"
       osb:paint="solid">
      <stop
         style="stop-color:#2d2d2d;stop-opacity:1;"
         offset="0"
         id="stop4047" />
    </linearGradient>
  </defs>
  <sodipodi:namedview
     id="base"
     pagecolor="#ffffff"
     bordercolor="#666666"
     borderopacity="1.0"
     inkscape:pageopacity="0.0"
     inkscape:pageshadow="2"
     inkscape:zoom="0.59935566"
     inkscape:cx="372.85308"
     inkscape:cy="403.38845"
     inkscape:document-units="mm"
     inkscape:current-layer="layer1"
     showgrid="false"
     inkscape:window-width="1366"
     inkscape:window-height="719"
     inkscape:window-x="0"
     inkscape:window-y="25"
     inkscape:window-maximized="1" />
  <metadata
     id="metadata1387">
    <rdf:RDF>
      <cc:Work
         rdf:about="">
        <dc:format>image/svg+xml</dc:format>
        <dc:type
           rdf:resource="http://purl.org/dc/dcmitype/StillImage" />
        <dc:title></dc:title>
      </cc:Work>
    </rdf:RDF>
  </metadata>
  <g
     inkscape:label="Layer 1"
     inkscape:groupmode="layer"
     id="layer1"
     transform="translate(0,-87)">
    <rect
       style="opacity:1;fill:#008080;fill-opacity:1;stroke:none;stroke-width:1.32300007;stroke-miterlimit:4;stroke-dasharray:none;stroke-opacity:1"
       id="rect1935"
       width="299.8764"
       height="211.14293"
       x="-0.53453904"
       y="86.926155"
       inkscape:export-xdpi="97.099998"
       inkscape:export-ydpi="97.099998" />
    <g
       style="opacity:0.27900002;stroke:#feffff;stroke-width:0;stroke-miterlimit:4;stroke-dasharray:none;stroke-opacity:0"
       transform="matrix(3.4654551,0,0,3.8396392,-542.64472,-442.42405)"
       id="g4142">
      <path
         style="fill:#fafafa;fill-opacity:1;stroke:#feffff;stroke-width:0;stroke-linecap:butt;stroke-linejoin:miter;stroke-miterlimit:4;stroke-dasharray:none;stroke-opacity:0"
         d="m 181.60057,175.11035 3.27197,-2.77167 c 0,0 0.24868,-0.95761 0.51844,-1.36214 0.31122,-0.46674 1.22261,-1.15892 1.22261,-1.15892 0,0 1.83114,-0.63134 2.59975,-1.19469 1.0295,-0.75455 2.569,-2.83495 2.569,-2.83495 0,0 -0.3097,3.8688 -1.25515,5.49404 -0.3315,0.56987 -1.45934,1.33876 -1.45934,1.33876 0,0 -0.95381,0.5917 -1.49391,0.68751 -0.81872,0.14526 -2.48682,-0.1992 -2.48682,-0.1992 l -3.56569,2.9299 z"
         id="path4144"
         inkscape:connector-curvature="0"
         sodipodi:nodetypes="ccacacacaccc" />
      <path
         style="fill:#ffffff;fill-opacity:1;stroke:#feffff;stroke-width:0;stroke-linecap:butt;stroke-linejoin:miter;stroke-miterlimit:4;stroke-dasharray:none;stroke-opacity:0"
         d="m 172.36611,189.48271 -0.48817,7.23061 c 0,0 7.62122,-13.32426 8.13807,-20.72949 0.34557,-4.95108 -1.92086,-10.54002 -1.92086,-10.54002 -2.01812,-3.03312 -3.79201,0.37385 -3.70327,0.34849 3.35159,8.17099 3.02388,10.49155 -2.02577,23.69041 z"
         id="path4146"
         inkscape:connector-curvature="0"
         sodipodi:nodetypes="ccsccc" />
      <path
         style="fill:#ffff00;fill-opacity:1;stroke:#feffff;stroke-width:0;stroke-linecap:butt;stroke-linejoin:miter;stroke-miterlimit:4;stroke-dasharray:none;stroke-opacity:0"
         d="m 162.6888,132.10448 c 0,0 -2.85632,5.8183 -3.26636,10.01841 -0.45008,4.61019 1.06302,11.19377 1.06302,11.19377 0,0 -4.54004,4.27784 -6.11675,6.91912 -1.73612,2.90828 -3.50165,9.52984 -3.50165,9.52984 0,0 11.05966,2.98516 16.03649,0.99461 3.48373,-1.39345 7.64895,-8.24529 7.64895,-8.24529 0,0 10.59266,1.82088 15.08205,-0.45223 4.65357,-2.35623 9.62148,-12.31859 9.62148,-12.31859 0,0 -6.63191,-2.01691 -9.97,-2.94963 -3.88298,-1.08499 -10.97779,0.43812 -10.97779,0.43812 0,0 -3.16085,-7.95203 -6.38826,-10.76075 -3.38043,-2.9423 -9.23119,-4.36741 -9.23119,-4.36741 z"
         id="path4148"
         inkscape:connector-curvature="0"
         sodipodi:nodetypes="cscacacacscsc" />
    </g>
  </g>
</svg>
